<mxfile host="app.diagrams.net" modified="2021-08-21T09:48:50.971Z" agent="5.0 (Windows NT 10.0; Win64; x64) AppleWebKit/537.36 (KHTML, like Gecko) Chrome/92.0.4515.131 Safari/537.36 OPR/78.0.4093.153" etag="5CeZg4CzFStka5Bqxn9d" version="14.9.5" type="github">
  <diagram id="qSeq1PTUGEknzjnLGoej" name="Page-1">
    <mxGraphModel dx="741" dy="761" grid="1" gridSize="10" guides="1" tooltips="1" connect="1" arrows="1" fold="1" page="1" pageScale="1" pageWidth="1169" pageHeight="827" math="0" shadow="0">
      <root>
        <mxCell id="0" />
        <mxCell id="1" parent="0" />
        <mxCell id="ntmOxPz6lwxGxm01NdYX-2" value="GameManager" style="swimlane;fontStyle=1;align=left;verticalAlign=top;childLayout=stackLayout;horizontal=1;startSize=26;horizontalStack=0;resizeParent=1;resizeParentMax=0;resizeLast=0;collapsible=1;marginBottom=0;fillColor=#dae8fc;glass=0;rounded=0;swimlaneFillColor=#ffffff;" vertex="1" parent="1">
          <mxGeometry x="240" y="250" width="190" height="88" as="geometry" />
        </mxCell>
        <mxCell id="ntmOxPz6lwxGxm01NdYX-3" value="+Comunica el resto de sistemas" style="text;strokeColor=none;fillColor=none;align=left;verticalAlign=top;spacingLeft=4;spacingRight=4;overflow=hidden;rotatable=0;points=[[0,0.5],[1,0.5]];portConstraint=eastwest;html=1;whiteSpace=wrap;" vertex="1" parent="ntmOxPz6lwxGxm01NdYX-2">
          <mxGeometry y="26" width="190" height="54" as="geometry" />
        </mxCell>
        <mxCell id="ntmOxPz6lwxGxm01NdYX-4" value="" style="line;strokeWidth=1;fillColor=none;align=left;verticalAlign=middle;spacingTop=-1;spacingLeft=3;spacingRight=3;rotatable=0;labelPosition=right;points=[];portConstraint=eastwest;" vertex="1" parent="ntmOxPz6lwxGxm01NdYX-2">
          <mxGeometry y="80" width="190" height="8" as="geometry" />
        </mxCell>
        <mxCell id="ntmOxPz6lwxGxm01NdYX-5" value="SoundManager" style="swimlane;fontStyle=1;align=left;verticalAlign=top;childLayout=stackLayout;horizontal=1;startSize=26;horizontalStack=0;resizeParent=1;resizeParentMax=0;resizeLast=0;collapsible=1;marginBottom=0;fillColor=#dae8fc;glass=0;rounded=0;swimlaneFillColor=#ffffff;" vertex="1" parent="1">
          <mxGeometry x="190" y="440" width="190" height="88" as="geometry" />
        </mxCell>
        <mxCell id="ntmOxPz6lwxGxm01NdYX-6" value="+Reproduce sonido y musica" style="text;strokeColor=none;fillColor=none;align=left;verticalAlign=top;spacingLeft=4;spacingRight=4;overflow=hidden;rotatable=0;points=[[0,0.5],[1,0.5]];portConstraint=eastwest;html=1;whiteSpace=wrap;" vertex="1" parent="ntmOxPz6lwxGxm01NdYX-5">
          <mxGeometry y="26" width="190" height="54" as="geometry" />
        </mxCell>
        <mxCell id="ntmOxPz6lwxGxm01NdYX-7" value="" style="line;strokeWidth=1;fillColor=none;align=left;verticalAlign=middle;spacingTop=-1;spacingLeft=3;spacingRight=3;rotatable=0;labelPosition=right;points=[];portConstraint=eastwest;" vertex="1" parent="ntmOxPz6lwxGxm01NdYX-5">
          <mxGeometry y="80" width="190" height="8" as="geometry" />
        </mxCell>
        <mxCell id="ntmOxPz6lwxGxm01NdYX-8" value="Player/plane" style="swimlane;fontStyle=1;align=left;verticalAlign=top;childLayout=stackLayout;horizontal=1;startSize=26;horizontalStack=0;resizeParent=1;resizeParentMax=0;resizeLast=0;collapsible=1;marginBottom=0;fillColor=#f8cecc;glass=0;rounded=0;swimlaneFillColor=#ffffff;strokeColor=#b85450;" vertex="1" parent="1">
          <mxGeometry x="210" y="120" width="190" height="88" as="geometry" />
        </mxCell>
        <mxCell id="ntmOxPz6lwxGxm01NdYX-9" value="+GameObject jugador&lt;br&gt;+Controles invocados desde PuzzlePiece" style="text;strokeColor=none;fillColor=none;align=left;verticalAlign=top;spacingLeft=4;spacingRight=4;overflow=hidden;rotatable=0;points=[[0,0.5],[1,0.5]];portConstraint=eastwest;html=1;whiteSpace=wrap;" vertex="1" parent="ntmOxPz6lwxGxm01NdYX-8">
          <mxGeometry y="26" width="190" height="54" as="geometry" />
        </mxCell>
        <mxCell id="ntmOxPz6lwxGxm01NdYX-10" value="" style="line;strokeWidth=1;fillColor=none;align=left;verticalAlign=middle;spacingTop=-1;spacingLeft=3;spacingRight=3;rotatable=0;labelPosition=right;points=[];portConstraint=eastwest;" vertex="1" parent="ntmOxPz6lwxGxm01NdYX-8">
          <mxGeometry y="80" width="190" height="8" as="geometry" />
        </mxCell>
        <mxCell id="ntmOxPz6lwxGxm01NdYX-11" value="PuzzlePiece" style="swimlane;fontStyle=1;align=left;verticalAlign=top;childLayout=stackLayout;horizontal=1;startSize=26;horizontalStack=0;resizeParent=1;resizeParentMax=0;resizeLast=0;collapsible=1;marginBottom=0;fillColor=#f8cecc;glass=0;rounded=0;swimlaneFillColor=#ffffff;strokeColor=#b85450;" vertex="1" parent="1">
          <mxGeometry x="470" y="110" width="190" height="88" as="geometry" />
        </mxCell>
        <mxCell id="ntmOxPz6lwxGxm01NdYX-12" value="+Pieza base que afecta a los controles del jugador." style="text;strokeColor=none;fillColor=none;align=left;verticalAlign=top;spacingLeft=4;spacingRight=4;overflow=hidden;rotatable=0;points=[[0,0.5],[1,0.5]];portConstraint=eastwest;html=1;whiteSpace=wrap;" vertex="1" parent="ntmOxPz6lwxGxm01NdYX-11">
          <mxGeometry y="26" width="190" height="54" as="geometry" />
        </mxCell>
        <mxCell id="ntmOxPz6lwxGxm01NdYX-13" value="" style="line;strokeWidth=1;fillColor=none;align=left;verticalAlign=middle;spacingTop=-1;spacingLeft=3;spacingRight=3;rotatable=0;labelPosition=right;points=[];portConstraint=eastwest;" vertex="1" parent="ntmOxPz6lwxGxm01NdYX-11">
          <mxGeometry y="80" width="190" height="8" as="geometry" />
        </mxCell>
        <mxCell id="ntmOxPz6lwxGxm01NdYX-14" value="UIManager" style="swimlane;fontStyle=1;align=left;verticalAlign=top;childLayout=stackLayout;horizontal=1;startSize=26;horizontalStack=0;resizeParent=1;resizeParentMax=0;resizeLast=0;collapsible=1;marginBottom=0;fillColor=#dae8fc;glass=0;rounded=0;swimlaneFillColor=#ffffff;" vertex="1" parent="1">
          <mxGeometry x="490" y="280" width="190" height="88" as="geometry" />
        </mxCell>
        <mxCell id="ntmOxPz6lwxGxm01NdYX-15" value="+Gestion informacion en pantalla" style="text;strokeColor=none;fillColor=none;align=left;verticalAlign=top;spacingLeft=4;spacingRight=4;overflow=hidden;rotatable=0;points=[[0,0.5],[1,0.5]];portConstraint=eastwest;html=1;whiteSpace=wrap;" vertex="1" parent="ntmOxPz6lwxGxm01NdYX-14">
          <mxGeometry y="26" width="190" height="54" as="geometry" />
        </mxCell>
        <mxCell id="ntmOxPz6lwxGxm01NdYX-16" value="" style="line;strokeWidth=1;fillColor=none;align=left;verticalAlign=middle;spacingTop=-1;spacingLeft=3;spacingRight=3;rotatable=0;labelPosition=right;points=[];portConstraint=eastwest;" vertex="1" parent="ntmOxPz6lwxGxm01NdYX-14">
          <mxGeometry y="80" width="190" height="8" as="geometry" />
        </mxCell>
        <mxCell id="ntmOxPz6lwxGxm01NdYX-17" value="LevelManager" style="swimlane;fontStyle=1;align=left;verticalAlign=top;childLayout=stackLayout;horizontal=1;startSize=26;horizontalStack=0;resizeParent=1;resizeParentMax=0;resizeLast=0;collapsible=1;marginBottom=0;fillColor=#dae8fc;glass=0;rounded=0;swimlaneFillColor=#ffffff;" vertex="1" parent="1">
          <mxGeometry x="500" y="400" width="190" height="108" as="geometry" />
        </mxCell>
        <mxCell id="ntmOxPz6lwxGxm01NdYX-18" value="+Gestion funciones del nivel, como inicio o final de fase y lo que surja(un poco derivado de gameManager." style="text;strokeColor=none;fillColor=none;align=left;verticalAlign=top;spacingLeft=4;spacingRight=4;overflow=hidden;rotatable=0;points=[[0,0.5],[1,0.5]];portConstraint=eastwest;html=1;whiteSpace=wrap;" vertex="1" parent="ntmOxPz6lwxGxm01NdYX-17">
          <mxGeometry y="26" width="190" height="74" as="geometry" />
        </mxCell>
        <mxCell id="ntmOxPz6lwxGxm01NdYX-19" value="" style="line;strokeWidth=1;fillColor=none;align=left;verticalAlign=middle;spacingTop=-1;spacingLeft=3;spacingRight=3;rotatable=0;labelPosition=right;points=[];portConstraint=eastwest;" vertex="1" parent="ntmOxPz6lwxGxm01NdYX-17">
          <mxGeometry y="100" width="190" height="8" as="geometry" />
        </mxCell>
        <mxCell id="ntmOxPz6lwxGxm01NdYX-20" value="LevelPiece" style="swimlane;fontStyle=1;align=left;verticalAlign=top;childLayout=stackLayout;horizontal=1;startSize=26;horizontalStack=0;resizeParent=1;resizeParentMax=0;resizeLast=0;collapsible=1;marginBottom=0;fillColor=#f8cecc;glass=0;rounded=0;swimlaneFillColor=#ffffff;strokeColor=#b85450;" vertex="1" parent="1">
          <mxGeometry x="440" y="10" width="190" height="88" as="geometry" />
        </mxCell>
        <mxCell id="ntmOxPz6lwxGxm01NdYX-21" value="+Elementos situados en medio de la fase, en el camino del jugador." style="text;strokeColor=none;fillColor=none;align=left;verticalAlign=top;spacingLeft=4;spacingRight=4;overflow=hidden;rotatable=0;points=[[0,0.5],[1,0.5]];portConstraint=eastwest;html=1;whiteSpace=wrap;" vertex="1" parent="ntmOxPz6lwxGxm01NdYX-20">
          <mxGeometry y="26" width="190" height="54" as="geometry" />
        </mxCell>
        <mxCell id="ntmOxPz6lwxGxm01NdYX-22" value="" style="line;strokeWidth=1;fillColor=none;align=left;verticalAlign=middle;spacingTop=-1;spacingLeft=3;spacingRight=3;rotatable=0;labelPosition=right;points=[];portConstraint=eastwest;" vertex="1" parent="ntmOxPz6lwxGxm01NdYX-20">
          <mxGeometry y="80" width="190" height="8" as="geometry" />
        </mxCell>
        <mxCell id="ntmOxPz6lwxGxm01NdYX-23" value="LaneManager" style="swimlane;fontStyle=1;align=left;verticalAlign=top;childLayout=stackLayout;horizontal=1;startSize=26;horizontalStack=0;resizeParent=1;resizeParentMax=0;resizeLast=0;collapsible=1;marginBottom=0;fillColor=#dae8fc;glass=0;rounded=0;swimlaneFillColor=#ffffff;" vertex="1" parent="1">
          <mxGeometry x="400" y="540" width="190" height="108" as="geometry" />
        </mxCell>
        <mxCell id="ntmOxPz6lwxGxm01NdYX-24" value="+Gestor de las piezas que se invocan en el minijuego de ritmo" style="text;strokeColor=none;fillColor=none;align=left;verticalAlign=top;spacingLeft=4;spacingRight=4;overflow=hidden;rotatable=0;points=[[0,0.5],[1,0.5]];portConstraint=eastwest;html=1;whiteSpace=wrap;" vertex="1" parent="ntmOxPz6lwxGxm01NdYX-23">
          <mxGeometry y="26" width="190" height="74" as="geometry" />
        </mxCell>
        <mxCell id="ntmOxPz6lwxGxm01NdYX-25" value="" style="line;strokeWidth=1;fillColor=none;align=left;verticalAlign=middle;spacingTop=-1;spacingLeft=3;spacingRight=3;rotatable=0;labelPosition=right;points=[];portConstraint=eastwest;" vertex="1" parent="ntmOxPz6lwxGxm01NdYX-23">
          <mxGeometry y="100" width="190" height="8" as="geometry" />
        </mxCell>
      </root>
    </mxGraphModel>
  </diagram>
</mxfile>
